<svg xmlns="http://www.w3.org/2000/svg" style="display: none;">

<!-- navbar -->

<symbol id="watch" viewBox="0 0 20 20">
<path d="M10 18C12.1217 18 14.1566 17.1571 15.6569 15.6569C17.1571 14.1566 18 12.1217 18 10C18 7.87827 17.1571 5.84344 15.6569 4.34315C14.1566 2.84285 12.1217 2 10 2C7.87827 2 5.84344 2.84285 4.34315 4.34315C2.84285 5.84344 2 7.87827 2 10C2 12.1217 2.84285 14.1566 4.34315 15.6569C5.84344 17.1571 7.87827 18 10 18ZM10 0C11.3132 0 12.6136 0.258658 13.8268 0.761205C15.0401 1.26375 16.1425 2.00035 17.0711 2.92893C17.9997 3.85752 18.7362 4.95991 19.2388 6.17317C19.7413 7.38642 20 8.68678 20 10C20 12.6522 18.9464 15.1957 17.0711 17.0711C15.1957 18.9464 12.6522 20 10 20C4.47 20 0 15.5 0 10C0 7.34784 1.05357 4.8043 2.92893 2.92893C4.8043 1.05357 7.34784 0 10 0ZM10.5 5V10.25L15 12.92L14.25 14.15L9 11V5H10.5Z" fill="#023047"/>
</symbol>

<symbol id="call" viewBox="0 0 18 18">
<path d="M16.95 18C14.8667 18 12.8083 17.546 10.775 16.638C8.74167 15.73 6.89167 14.4423 5.225 12.775C3.55833 11.1077 2.271 9.25767 1.363 7.225C0.455 5.19233 0.000666667 3.134 0 1.05C0 0.75 0.0999999 0.5 0.3 0.3C0.5 0.0999999 0.75 0 1.05 0H5.1C5.33333 0 5.54167 0.0793332 5.725 0.238C5.90833 0.396667 6.01667 0.584 6.05 0.8L6.7 4.3C6.73333 4.56667 6.725 4.79167 6.675 4.975C6.625 5.15833 6.53333 5.31667 6.4 5.45L3.975 7.9C4.30833 8.51667 4.704 9.11233 5.162 9.687C5.62 10.2617 6.12433 10.816 6.675 11.35C7.19167 11.8667 7.73333 12.346 8.3 12.788C8.86667 13.23 9.46667 13.634 10.1 14L12.45 11.65C12.6 11.5 12.796 11.3877 13.038 11.313C13.28 11.2383 13.5173 11.2173 13.75 11.25L17.2 11.95C17.4333 12.0167 17.625 12.1377 17.775 12.313C17.925 12.4883 18 12.684 18 12.9V16.95C18 17.25 17.9 17.5 17.7 17.7C17.5 17.9 17.25 18 16.95 18Z" fill="#023047"/>
</symbol>

<symbol id="email" viewBox="0 0 20 16">
<path d="M20 2C20 0.9 19.1 0 18 0H2C0.9 0 0 0.9 0 2V14C0 15.1 0.9 16 2 16H18C19.1 16 20 15.1 20 14V2ZM18 2L10 7L2 2H18ZM18 14H2V4L10 9L18 4V14Z" fill="#023047"/>
</symbol>

<!-- banner -->

<symbol id="search" viewBox="0 0 24 24">
<path d="M22.1333 24L13.7333 15.6C13.0667 16.1333 12.3 16.5556 11.4333 16.8667C10.5667 17.1778 9.64445 17.3333 8.66667 17.3333C6.24445 17.3333 4.19467 16.4942 2.51733 14.816C0.840001 13.1378 0.000889594 11.088 7.05467e-07 8.66667C-0.000888183 6.24533 0.838223 4.19556 2.51733 2.51733C4.19645 0.839111 6.24622 0 8.66667 0C11.0871 0 13.1373 0.839111 14.8173 2.51733C16.4973 4.19556 17.336 6.24533 17.3333 8.66667C17.3333 9.64444 17.1778 10.5667 16.8667 11.4333C16.5556 12.3 16.1333 13.0667 15.6 13.7333L24 22.1333L22.1333 24ZM8.66667 14.6667C10.3333 14.6667 11.7502 14.0836 12.9173 12.9173C14.0844 11.7511 14.6676 10.3342 14.6667 8.66667C14.6658 6.99911 14.0827 5.58267 12.9173 4.41733C11.752 3.252 10.3351 2.66844 8.66667 2.66667C6.99822 2.66489 5.58178 3.24844 4.41733 4.41733C3.25289 5.58622 2.66933 7.00267 2.66667 8.66667C2.664 10.3307 3.24756 11.7476 4.41733 12.9173C5.58711 14.0871 7.00356 14.6702 8.66667 14.6667Z" fill="#023047"/>
</symbol>

<symbol id="location" viewBox="0 0 24 24">
<path fill-rule="evenodd" clip-rule="evenodd" d="M12 0C15.1826 0 18.2348 1.12843 20.4853 3.13706C22.7357 5.14569 24 7.86997 24 10.7106C24 14.3689 21.7653 17.3631 19.4107 19.5111C18.2342 20.5728 16.9506 21.5352 15.576 22.3863L15.008 22.7315L14.7413 22.8897L14.2387 23.1754L13.7907 23.4193L13.236 23.7073C12.8595 23.8991 12.4335 24 12 24C11.5665 24 11.1405 23.8991 10.764 23.7073L10.2093 23.4193L9.516 23.0385L9.26 22.8897L8.71333 22.5648C7.23044 21.6693 5.8492 20.6466 4.58933 19.5111C2.23467 17.3619 0 14.3689 0 10.7106C0 7.86997 1.26428 5.14569 3.51472 3.13706C5.76515 1.12843 8.8174 0 12 0ZM12 2.38013C9.52465 2.38013 7.15068 3.2578 5.40034 4.82007C3.65 6.38233 2.66667 8.50122 2.66667 10.7106C2.66667 13.4739 4.36267 15.8993 6.49467 17.8462C7.41137 18.6745 8.40221 19.4347 9.45733 20.1193L10.068 20.5072C10.2653 20.6302 10.4551 20.7444 10.6373 20.85L11.1573 21.1475L11.6147 21.3962L12 21.5973L12.6067 21.2772L13.096 21.0035C13.3564 20.8559 13.6351 20.6905 13.932 20.5072L14.5427 20.1193C15.5978 19.4347 16.5886 18.6745 17.5053 17.8462C19.6373 15.9005 21.3333 13.4739 21.3333 10.7106C21.3333 8.50122 20.35 6.38233 18.5997 4.82007C16.8493 3.2578 14.4754 2.38013 12 2.38013ZM12 5.95033C13.4145 5.95033 14.771 6.45186 15.7712 7.34458C16.7714 8.2373 17.3333 9.4481 17.3333 10.7106C17.3333 11.9731 16.7714 13.1839 15.7712 14.0766C14.771 14.9693 13.4145 15.4709 12 15.4709C10.5855 15.4709 9.22896 14.9693 8.22876 14.0766C7.22857 13.1839 6.66667 11.9731 6.66667 10.7106C6.66667 9.4481 7.22857 8.2373 8.22876 7.34458C9.22896 6.45186 10.5855 5.95033 12 5.95033ZM12 8.33047C11.2928 8.33047 10.6145 8.58123 10.1144 9.02759C9.61429 9.47395 9.33333 10.0793 9.33333 10.7106C9.33333 11.3418 9.61429 11.9472 10.1144 12.3936C10.6145 12.84 11.2928 13.0907 12 13.0907C12.7072 13.0907 13.3855 12.84 13.8856 12.3936C14.3857 11.9472 14.6667 11.3418 14.6667 10.7106C14.6667 10.0793 14.3857 9.47395 13.8856 9.02759C13.3855 8.58123 12.7072 8.33047 12 8.33047Z" fill="#023047"/>
</symbol>

<symbol id="typologies" viewBox="0 0 24 24">
<path d="M5.81265 10.3477C5.91422 10.3477 6.02749 10.3633 6.15249 10.3946C6.27749 10.4258 6.40248 10.4688 6.52748 10.5235C6.65248 10.5782 6.77747 10.6289 6.90247 10.6758C7.02747 10.7227 7.14075 10.7696 7.24231 10.8164L7.05481 10.8399C6.99231 10.8477 6.92591 10.8516 6.8556 10.8516C6.72279 10.8516 6.6017 10.8321 6.49233 10.793C6.38295 10.7539 6.28139 10.7032 6.18765 10.6407C6.0939 10.5782 6.00015 10.5313 5.9064 10.5C5.81265 10.4688 5.72672 10.4454 5.6486 10.4297C5.57047 10.4297 5.50016 10.4454 5.43766 10.4766C5.37517 10.5078 5.31267 10.543 5.25017 10.5821C5.25017 10.5508 5.22283 10.5352 5.16814 10.5352C5.22283 10.4805 5.32439 10.4375 5.47282 10.4063C5.62125 10.375 5.73453 10.3555 5.81265 10.3477ZM7.39465 10.875C7.71495 10.875 8.00791 10.9297 8.27353 11.0391C8.16416 11.0781 8.05479 11.1094 7.94541 11.1328C7.83604 11.1563 7.72276 11.1719 7.60558 11.1797C7.44933 11.1797 7.30871 11.1641 7.18371 11.1328C7.22278 11.0703 7.26184 11.0313 7.3009 11.0156C7.33996 11 7.37121 10.9532 7.39465 10.875ZM12 0.000300473C13.1015 0.000300473 14.1601 0.144828 15.1757 0.433883C16.1913 0.722939 17.1444 1.12527 18.035 1.64088C18.9256 2.1565 19.7381 2.78539 20.4724 3.52756C21.2068 4.26972 21.8318 5.0783 22.3474 5.95328C22.863 6.82825 23.2692 7.78136 23.5661 8.81258C23.863 9.8438 24.0075 10.9063 23.9997 12C23.9997 13.1015 23.8552 14.1601 23.5661 15.1757C23.2771 16.1913 22.8747 17.1444 22.3591 18.035C21.8435 18.9256 21.2146 19.7381 20.4724 20.4724C19.7303 21.2068 18.9217 21.8318 18.0467 22.3474C17.1717 22.863 16.2186 23.2692 15.1874 23.5661C14.1562 23.863 13.0937 24.0075 12 23.9997C10.8985 23.9997 9.8399 23.8552 8.8243 23.5661C7.8087 23.2771 6.8556 22.8747 5.96499 22.3591C5.07439 21.8435 4.26191 21.2146 3.52756 20.4724C2.7932 19.7303 2.16821 18.9217 1.6526 18.0467C1.13699 17.1717 0.730751 16.2186 0.433883 15.1874C0.137016 14.1562 -0.00751183 13.0937 0.000300473 12C0.000300473 10.8985 0.144828 9.8399 0.433883 8.8243C0.722939 7.8087 1.12527 6.8556 1.64088 5.96499C2.1565 5.07439 2.78539 4.26191 3.52756 3.52756C4.26972 2.7932 5.0783 2.16821 5.95328 1.6526C6.82825 1.13699 7.78136 0.730751 8.81258 0.433883C9.8438 0.137016 10.9063 -0.00751183 12 0.000300473ZM20.9295 6.50404C20.8201 6.33217 20.7107 6.16811 20.6013 6.01187C20.492 5.85562 20.3787 5.69547 20.2615 5.53141C20.2459 5.60172 20.2264 5.6525 20.2029 5.68375C20.1795 5.715 20.1639 5.78531 20.156 5.89468C20.156 5.96499 20.1834 6.0314 20.2381 6.0939C20.2928 6.1564 20.3631 6.21889 20.449 6.28139C20.5349 6.34389 20.6209 6.39077 20.7068 6.42201C20.7927 6.45326 20.867 6.48061 20.9295 6.50404ZM20.1209 5.35564C20.1209 5.41813 20.1092 5.4611 20.0857 5.48454H20.156C20.1873 5.48454 20.2107 5.48844 20.2264 5.49626L20.1209 5.35564ZM12 22.4997C12.8906 22.4997 13.7617 22.3865 14.6132 22.1599C15.4648 21.9333 16.2694 21.613 17.0272 21.199C17.785 20.7849 18.4881 20.2771 19.1365 19.6756C19.785 19.074 20.3514 18.4022 20.8357 17.66C20.7342 17.4256 20.6365 17.1874 20.5428 16.9452C20.449 16.703 20.4021 16.453 20.4021 16.1952C20.4021 15.914 20.4139 15.6874 20.4373 15.5155C20.4607 15.3437 20.4881 15.1913 20.5193 15.0585C20.5506 14.9257 20.5662 14.8124 20.5662 14.7187C20.5662 14.6249 20.5545 14.5038 20.531 14.3554C20.5076 14.207 20.4412 14.0468 20.3318 13.875C20.2225 13.7031 20.0779 13.4609 19.8982 13.1484C19.9061 13.0937 19.9178 13.0195 19.9334 12.9258C19.949 12.832 19.9646 12.7344 19.9803 12.6328C19.9959 12.5312 19.9998 12.4375 19.992 12.3516C19.9842 12.2656 19.9646 12.1914 19.9334 12.1289C19.7303 12.1055 19.5193 12.0625 19.3006 12C19.0819 11.9375 18.8865 11.8438 18.7147 11.7188L18.785 11.6602C18.6834 11.6836 18.5819 11.7149 18.4803 11.7539C18.3787 11.793 18.2811 11.8359 18.1873 11.8828C18.0936 11.9297 17.992 11.9609 17.8827 11.9766C17.7733 11.9922 17.6678 12.0078 17.5663 12.0234L17.3788 12L17.4139 11.918C17.3046 11.9492 17.1874 11.9883 17.0624 12.0352C16.9374 12.082 16.8163 12.1055 16.6991 12.1055C16.621 12.1055 16.5077 12.0781 16.3593 12.0234C16.2108 11.9688 16.0624 11.9023 15.914 11.8242C15.7655 11.7461 15.6327 11.6602 15.5155 11.5664C15.3984 11.4727 15.3398 11.3828 15.3398 11.2969L15.3632 11.2617C15.3241 11.2149 15.2734 11.1719 15.2109 11.1328C15.1484 11.0938 15.0898 11.0547 15.0351 11.0156C14.9804 10.9766 14.9296 10.9336 14.8827 10.8867C14.8359 10.8399 14.8163 10.7852 14.8241 10.7227L14.9531 10.6172L14.6835 10.5821L14.5898 10.2305C14.6054 10.2696 14.6406 10.2852 14.6952 10.2774C14.7499 10.2696 14.7929 10.254 14.8241 10.2305L14.4023 10.0079L14.6952 9.25788C14.5859 8.85164 14.5585 8.53915 14.6132 8.32041C14.6679 8.10166 14.7734 7.92198 14.9296 7.78136C15.0859 7.64073 15.2577 7.50011 15.4452 7.35949C15.6327 7.21887 15.8241 7.02747 16.0194 6.78529L15.9843 6.64467L16.7577 5.70719L16.9335 5.68375C17.1522 5.68375 17.3983 5.67594 17.6717 5.66032C17.9452 5.64469 18.2225 5.61735 18.5037 5.57829C18.785 5.53922 19.0623 5.50016 19.3358 5.4611C19.6092 5.42204 19.8592 5.37126 20.0857 5.30876C19.8357 5.01189 19.574 4.73065 19.3006 4.46503C19.0272 4.19941 18.7342 3.94551 18.4217 3.70333C18.3358 3.73458 18.2303 3.77755 18.1053 3.83224C17.9803 3.88692 17.8553 3.95723 17.7303 4.04317C17.6053 4.1291 17.5077 4.22285 17.4374 4.32441C17.3671 4.42597 17.3241 4.53144 17.3085 4.64081L17.3788 4.86346C17.2381 5.09002 17.0819 5.23064 16.91 5.28532C16.7382 5.34001 16.5624 5.37126 16.3827 5.37907C16.203 5.38688 16.0155 5.38688 15.8202 5.37907C15.6249 5.37126 15.4374 5.40641 15.2577 5.48454L15.0702 5.08611L15.246 4.40644L15.0468 4.11348L17.0741 3.48068C16.9882 3.26194 16.8475 3.09788 16.6522 2.98851C16.4569 2.87913 16.2421 2.82445 16.0077 2.82445V2.70726L16.6639 2.6018C15.9374 2.24243 15.1835 1.969 14.4023 1.78151C13.6211 1.59401 12.8203 1.50026 12 1.50026C11.3203 1.50026 10.6485 1.56667 9.98443 1.69948C9.32038 1.83229 8.67977 2.02369 8.0626 2.27368C7.44543 2.52367 6.84778 2.83617 6.26967 3.21116C5.69156 3.58615 5.16423 4.00801 4.68768 4.47675C4.8908 4.47675 5.04705 4.52753 5.15642 4.62909C5.26579 4.73065 5.36735 4.84393 5.4611 4.96893C5.55485 5.09392 5.6525 5.2072 5.75406 5.30876C5.85562 5.41032 5.99234 5.46501 6.16421 5.47282L6.3517 5.3322L6.32827 5.07439L6.71498 4.52362L6.4103 3.65646C6.44936 3.63302 6.50795 3.59396 6.58607 3.53927C6.6642 3.48459 6.7306 3.45725 6.78529 3.45725C7.01966 3.45725 7.19934 3.46896 7.32434 3.4924C7.44933 3.51584 7.5587 3.5588 7.65245 3.6213C7.7462 3.6838 7.82823 3.77364 7.89854 3.89083C7.96885 4.00801 8.07822 4.15645 8.22666 4.33613L8.64852 4.00801C8.72664 4.03926 8.85164 4.09004 9.02351 4.16035C9.19538 4.23066 9.37116 4.3166 9.55084 4.41816C9.73053 4.51972 9.88287 4.62518 10.0079 4.73456C10.1329 4.84393 10.1993 4.94549 10.2071 5.03924C10.2071 5.15642 10.1641 5.25017 10.0782 5.32048C9.99224 5.39079 9.87896 5.44938 9.73834 5.49626C9.59772 5.54313 9.45319 5.57829 9.30476 5.60172C9.15632 5.62516 9.00789 5.65641 8.85945 5.69547C8.71102 5.73453 8.59774 5.77359 8.51962 5.81265C8.44149 5.85172 8.39462 5.91812 8.379 6.01187L9.05867 6.23452C8.90242 6.36733 8.73446 6.48842 8.55477 6.59779C8.37509 6.70716 8.1876 6.80872 7.99229 6.90247L8.03916 7.10169L6.96106 7.52355V7.85167L6.87903 7.88682L6.93763 7.47668L6.89075 7.46496C6.83607 7.46496 6.80482 7.47668 6.79701 7.50011C6.78919 7.52355 6.78529 7.55089 6.78529 7.58214C6.78529 7.61339 6.7931 7.64464 6.80872 7.67589C6.82435 7.70714 6.82825 7.73058 6.82044 7.7462L6.6681 7.66417L6.69154 7.71104C6.69154 7.73448 6.70326 7.76964 6.72669 7.81651C6.75013 7.86338 6.78138 7.90635 6.82044 7.94541C6.8595 7.98448 6.89075 8.02354 6.91419 8.0626C6.93763 8.10166 6.95325 8.12119 6.96106 8.12119C6.96106 8.14463 6.94544 8.16807 6.91419 8.1915C6.88294 8.21494 6.84388 8.23056 6.79701 8.23838C6.75013 8.24619 6.71888 8.25791 6.70326 8.27353C6.68763 8.28916 6.68763 8.29306 6.70326 8.28525C6.81263 8.28525 6.83607 8.29306 6.77357 8.30869C6.71107 8.32431 6.61342 8.36337 6.48061 8.42587C6.3478 8.48837 6.22671 8.57821 6.11733 8.6954C6.00796 8.81258 5.94546 8.98445 5.92984 9.21101C5.92984 9.34382 5.93375 9.47272 5.94156 9.59772C5.94937 9.72271 5.94546 9.85162 5.92984 9.98443C5.82047 9.68756 5.65641 9.461 5.43766 9.30476C5.21892 9.14851 4.9533 9.07039 4.64081 9.07039L4.13692 9.11726L4.383 9.28132C4.25019 9.26569 4.11348 9.25007 3.97286 9.23444C3.83224 9.21882 3.68771 9.21491 3.53927 9.22273C3.39084 9.23054 3.25803 9.26179 3.14085 9.31647C3.02366 9.37116 2.90648 9.45319 2.78929 9.56256L2.71898 10.0899C2.71898 10.3399 2.77367 10.543 2.88304 10.6993C2.99241 10.8555 3.18381 10.9375 3.45725 10.9453C3.69161 10.9453 3.92208 10.9102 4.14863 10.8399C4.37519 10.7696 4.59784 10.6875 4.81659 10.5938C4.74628 10.7657 4.66815 10.9297 4.58222 11.086C4.49628 11.2422 4.43378 11.4141 4.39472 11.6016L4.54706 11.6719C4.73456 11.5469 4.90643 11.5274 5.06267 11.6133C5.21892 11.6992 5.37126 11.8242 5.51969 11.9883C5.66813 12.1523 5.82047 12.3203 5.97671 12.4922C6.13296 12.664 6.30092 12.789 6.48061 12.8672L6.08218 13.0781L5.1447 12.5508C5.15251 12.5664 5.16033 12.6015 5.16814 12.6562C5.17595 12.7109 5.17205 12.7226 5.15642 12.6914L4.73456 11.9766C4.48456 11.9688 4.21894 11.9297 3.9377 11.8594C3.65646 11.7891 3.37131 11.6953 3.08225 11.5781C2.7932 11.461 2.52367 11.332 2.27368 11.1914C2.02369 11.0508 1.79322 10.9024 1.58229 10.7461L1.50026 12C1.50026 12.9531 1.62917 13.8828 1.88697 14.789C2.14478 15.6952 2.50805 16.5468 2.97679 17.3436C3.44553 18.1405 4.01973 18.867 4.6994 19.5232C5.37907 20.1795 6.13296 20.7381 6.96106 21.199C6.922 21.0349 6.9181 20.8709 6.94935 20.7068C6.98059 20.5428 7.01966 20.3787 7.06653 20.2146C7.1134 20.0506 7.16418 19.8865 7.21887 19.7225C7.27356 19.5584 7.3009 19.3904 7.3009 19.2186C7.3009 18.9686 7.26184 18.7069 7.18371 18.4334C7.10559 18.16 7.01184 17.8827 6.90247 17.6014C6.7931 17.3202 6.67201 17.0428 6.5392 16.7694C6.40639 16.496 6.30092 16.2382 6.2228 15.996C6.14468 15.7538 6.08218 15.5273 6.03531 15.3163C5.98843 15.1054 6.01187 14.9218 6.10562 14.7656L5.92984 14.6835C5.97671 14.5742 6.03921 14.4687 6.11733 14.3671C6.19546 14.2656 6.27749 14.164 6.36342 14.0624C6.44936 13.9609 6.51576 13.8515 6.56264 13.7343C6.60951 13.6171 6.63685 13.5 6.64467 13.3828C6.64467 13.3047 6.62904 13.2226 6.59779 13.1367C6.56654 13.0508 6.5392 12.9687 6.51576 12.8906L6.76185 12.9492C6.89466 12.6445 7.07434 12.4375 7.3009 12.3281C7.52746 12.2187 7.8126 12.1602 8.15635 12.1523C8.19541 12.1523 8.27744 12.168 8.40243 12.1992C8.52743 12.2305 8.66024 12.2734 8.80086 12.3281C8.94148 12.3828 9.07429 12.4258 9.19929 12.457C9.32429 12.4883 9.41803 12.5195 9.48053 12.5508C9.48053 12.6055 9.51178 12.6406 9.57428 12.6562C9.63678 12.6719 9.67193 12.6992 9.67975 12.7383L9.65631 12.832C9.67975 12.8398 9.73443 12.8672 9.82037 12.914C9.9063 12.9609 10 13.0195 10.1016 13.0898C10.2032 13.1601 10.293 13.2226 10.3711 13.2773C10.4493 13.332 10.5039 13.375 10.5352 13.4062C10.6758 13.4062 10.8672 13.4531 11.1094 13.5468C11.3516 13.6406 11.6172 13.7578 11.9063 13.8984C12.1953 14.039 12.4805 14.207 12.7617 14.4023C13.0429 14.5976 13.3086 14.7929 13.5586 14.9882C13.8085 15.1835 13.9999 15.3788 14.1328 15.5741C14.2656 15.7694 14.3437 15.9413 14.3671 16.0897L13.9687 16.5116C13.9999 16.91 13.9726 17.2147 13.8867 17.4256C13.8007 17.6366 13.6679 17.8124 13.4882 17.953C13.3086 18.0936 13.1015 18.2108 12.8672 18.3045C12.6328 18.3983 12.3789 18.5311 12.1055 18.703C12.1055 18.8592 12.0664 19.0272 11.9883 19.2069C11.9102 19.3865 11.8125 19.5584 11.6953 19.7225C11.5781 19.8865 11.4375 20.0232 11.2735 20.1326C11.1094 20.242 10.9453 20.2967 10.7813 20.2967L10.2891 19.9217C10.3047 19.9373 10.3047 19.9646 10.2891 20.0037C10.2735 20.0428 10.254 20.0506 10.2305 20.0271C10.3086 20.1756 10.3282 20.3474 10.2891 20.5428C10.25 20.7381 10.1836 20.9373 10.0899 21.1404C9.99614 21.3435 9.89068 21.5349 9.77349 21.7146C9.65631 21.8943 9.55084 22.0466 9.4571 22.1716C9.87896 22.281 10.3008 22.363 10.7227 22.4177C11.1446 22.4724 11.5703 22.4997 12 22.4997Z" fill="#023047"/>
</symbol>

<!-- destination cart -->

<symbol id="clock" viewBox="0 0 20 20">
<path d="M10 18C12.1217 18 14.1566 17.1571 15.6569 15.6569C17.1571 14.1566 18 12.1217 18 10C18 7.87827 17.1571 5.84344 15.6569 4.34315C14.1566 2.84285 12.1217 2 10 2C7.87827 2 5.84344 2.84285 4.34315 4.34315C2.84285 5.84344 2 7.87827 2 10C2 12.1217 2.84285 14.1566 4.34315 15.6569C5.84344 17.1571 7.87827 18 10 18ZM10 0C11.3132 0 12.6136 0.258658 13.8268 0.761205C15.0401 1.26375 16.1425 2.00035 17.0711 2.92893C17.9997 3.85752 18.7362 4.95991 19.2388 6.17317C19.7413 7.38642 20 8.68678 20 10C20 12.6522 18.9464 15.1957 17.0711 17.0711C15.1957 18.9464 12.6522 20 10 20C4.47 20 0 15.5 0 10C0 7.34784 1.05357 4.8043 2.92893 2.92893C4.8043 1.05357 7.34784 0 10 0ZM10.5 5V10.25L15 12.92L14.25 14.15L9 11V5H10.5Z" fill="#023047"/>
</symbol>

<symbol id="message" viewBox="0 0 20 20">
<path d="M18 0H2C0.9 0 0.00999999 0.9 0.00999999 2L0 20L4 16H18C19.1 16 20 15.1 20 14V2C20 0.9 19.1 0 18 0ZM16 12H4V10H16V12ZM16 9H4V7H16V9ZM16 6H4V4H16V6Z" fill="#023047"/>
</symbol>

<symbol id="location_two" viewBox="0 0 18 22">
<path fill-rule="evenodd" clip-rule="evenodd" d="M9.59299 21.4393L9.58199 21.4413L9.51099 21.4766L9.49099 21.4807L9.47699 21.4766L9.40599 21.4413C9.39532 21.438 9.38732 21.4397 9.38199 21.4464L9.37799 21.4565L9.36099 21.8881L9.36599 21.9083L9.37599 21.9214L9.47999 21.996L9.49499 22.0001L9.50699 21.996L9.61099 21.9214L9.62299 21.9053L9.62699 21.8881L9.60999 21.4575C9.60732 21.4467 9.60166 21.4407 9.59299 21.4393ZM9.85799 21.3254L9.84499 21.3274L9.65999 21.4212L9.64999 21.4313L9.64699 21.4424L9.66499 21.876L9.66999 21.8881L9.67799 21.8952L9.87899 21.989C9.89165 21.9923 9.90132 21.9896 9.90799 21.9809L9.91199 21.9668L9.87799 21.3476C9.87466 21.3355 9.86799 21.3281 9.85799 21.3254ZM9.14299 21.3274C9.13858 21.3247 9.13331 21.3238 9.12828 21.3249C9.12325 21.3261 9.11885 21.3291 9.11599 21.3334L9.10999 21.3476L9.07599 21.9668C9.07666 21.9789 9.08232 21.987 9.09299 21.991L9.10799 21.989L9.30899 21.8952L9.31899 21.8871L9.32299 21.876L9.33999 21.4424L9.33699 21.4303L9.32699 21.4202L9.14299 21.3274Z" fill="#023047"/>
<path fill-rule="evenodd" clip-rule="evenodd" d="M9 0C11.3869 0 13.6761 0.956297 15.364 2.65852C17.0518 4.36073 18 6.66944 18 9.07674C18 12.177 16.324 14.7144 14.558 16.5348C13.6757 17.4345 12.7129 18.2501 11.682 18.9714L11.256 19.2639L11.056 19.398L10.679 19.64L10.343 19.8468L9.927 20.0909C9.64463 20.2534 9.32513 20.3389 9 20.3389C8.67487 20.3389 8.35537 20.2534 8.073 20.0909L7.657 19.8468L7.137 19.5241L6.945 19.398L6.535 19.1227C5.42283 18.3638 4.3869 17.497 3.442 16.5348C1.676 14.7134 0 12.177 0 9.07674C0 6.66944 0.948211 4.36073 2.63604 2.65852C4.32387 0.956297 6.61305 0 9 0ZM9 2.01705C7.14348 2.01705 5.36301 2.76084 4.05025 4.08479C2.7375 5.40874 2 7.20439 2 9.07674C2 11.4185 3.272 13.4739 4.871 15.1239C5.55853 15.8258 6.30166 16.47 7.093 17.0502L7.551 17.3789C7.699 17.4831 7.84133 17.58 7.978 17.6694L8.368 17.9215L8.711 18.1323L9 18.3027L9.455 18.0314L9.822 17.7995C10.0173 17.6744 10.2263 17.5342 10.449 17.3789L10.907 17.0502C11.6983 16.47 12.4415 15.8258 13.129 15.1239C14.728 13.4749 16 11.4185 16 9.07674C16 7.20439 15.2625 5.40874 13.9497 4.08479C12.637 2.76084 10.8565 2.01705 9 2.01705ZM9 5.04263C10.0609 5.04263 11.0783 5.46765 11.8284 6.2242C12.5786 6.98074 13 8.00683 13 9.07674C13 10.1467 12.5786 11.1727 11.8284 11.9293C11.0783 12.6858 10.0609 13.1108 9 13.1108C7.93913 13.1108 6.92172 12.6858 6.17157 11.9293C5.42143 11.1727 5 10.1467 5 9.07674C5 8.00683 5.42143 6.98074 6.17157 6.2242C6.92172 5.46765 7.93913 5.04263 9 5.04263ZM9 7.05969C8.46957 7.05969 7.96086 7.2722 7.58579 7.65047C7.21071 8.02874 7 8.54178 7 9.07674C7 9.6117 7.21071 10.1247 7.58579 10.503C7.96086 10.8813 8.46957 11.0938 9 11.0938C9.53043 11.0938 10.0391 10.8813 10.4142 10.503C10.7893 10.1247 11 9.6117 11 9.07674C11 8.54178 10.7893 8.02874 10.4142 7.65047C10.0391 7.2722 9.53043 7.05969 9 7.05969Z" fill="#023047"/>
</symbol>
<!-- hover -->


<symbol id="clock_hover" viewBox="0 0 20 20">
<path d="M10 18C12.1217 18 14.1566 17.1571 15.6569 15.6569C17.1571 14.1566 18 12.1217 18 10C18 7.87827 17.1571 5.84344 15.6569 4.34315C14.1566 2.84285 12.1217 2 10 2C7.87827 2 5.84344 2.84285 4.34315 4.34315C2.84285 5.84344 2 7.87827 2 10C2 12.1217 2.84285 14.1566 4.34315 15.6569C5.84344 17.1571 7.87827 18 10 18ZM10 0C11.3132 0 12.6136 0.258658 13.8268 0.761205C15.0401 1.26375 16.1425 2.00035 17.0711 2.92893C17.9997 3.85752 18.7362 4.95991 19.2388 6.17317C19.7413 7.38642 20 8.68678 20 10C20 12.6522 18.9464 15.1957 17.0711 17.0711C15.1957 18.9464 12.6522 20 10 20C4.47 20 0 15.5 0 10C0 7.34784 1.05357 4.8043 2.92893 2.92893C4.8043 1.05357 7.34784 0 10 0ZM10.5 5V10.25L15 12.92L14.25 14.15L9 11V5H10.5Z" fill="#8ECAE6"/>
</symbol>


<symbol id="message_hover" viewBox="0 0 20 20">
<path d="M18 0H2C0.9 0 0.00999999 0.9 0.00999999 2L0 20L4 16H18C19.1 16 20 15.1 20 14V2C20 0.9 19.1 0 18 0ZM16 12H4V10H16V12ZM16 9H4V7H16V9ZM16 6H4V4H16V6Z" fill="#8ECAE6"/>
</symbol>

<symbol id="location_hover" viewBox="0 0 18 22">
<path fill-rule="evenodd" clip-rule="evenodd" d="M9.59299 21.4393L9.58199 21.4413L9.51099 21.4766L9.49099 21.4807L9.47699 21.4766L9.40599 21.4413C9.39532 21.438 9.38732 21.4397 9.38199 21.4464L9.37799 21.4565L9.36099 21.8881L9.36599 21.9083L9.37599 21.9214L9.47999 21.996L9.49499 22.0001L9.50699 21.996L9.61099 21.9214L9.62299 21.9053L9.62699 21.8881L9.60999 21.4575C9.60732 21.4467 9.60166 21.4407 9.59299 21.4393ZM9.85799 21.3254L9.84499 21.3274L9.65999 21.4212L9.64999 21.4313L9.64699 21.4424L9.66499 21.876L9.66999 21.8881L9.67799 21.8952L9.87899 21.989C9.89165 21.9923 9.90132 21.9896 9.90799 21.9809L9.91199 21.9668L9.87799 21.3476C9.87466 21.3355 9.86799 21.3281 9.85799 21.3254ZM9.14299 21.3274C9.13858 21.3247 9.13331 21.3238 9.12828 21.3249C9.12325 21.3261 9.11885 21.3291 9.11599 21.3334L9.10999 21.3476L9.07599 21.9668C9.07666 21.9789 9.08232 21.987 9.09299 21.991L9.10799 21.989L9.30899 21.8952L9.31899 21.8871L9.32299 21.876L9.33999 21.4424L9.33699 21.4303L9.32699 21.4202L9.14299 21.3274Z" fill="#8ECAE6"/>
<path fill-rule="evenodd" clip-rule="evenodd" d="M9 0C11.3869 0 13.6761 0.956297 15.364 2.65852C17.0518 4.36073 18 6.66944 18 9.07674C18 12.177 16.324 14.7144 14.558 16.5348C13.6757 17.4345 12.7129 18.2501 11.682 18.9714L11.256 19.2639L11.056 19.398L10.679 19.64L10.343 19.8468L9.927 20.0909C9.64463 20.2534 9.32513 20.3389 9 20.3389C8.67487 20.3389 8.35537 20.2534 8.073 20.0909L7.657 19.8468L7.137 19.5241L6.945 19.398L6.535 19.1227C5.42283 18.3638 4.3869 17.497 3.442 16.5348C1.676 14.7134 0 12.177 0 9.07674C0 6.66944 0.948211 4.36073 2.63604 2.65852C4.32387 0.956297 6.61305 0 9 0ZM9 2.01705C7.14348 2.01705 5.36301 2.76084 4.05025 4.08479C2.7375 5.40874 2 7.20439 2 9.07674C2 11.4185 3.272 13.4739 4.871 15.1239C5.55853 15.8258 6.30166 16.47 7.093 17.0502L7.551 17.3789C7.699 17.4831 7.84133 17.58 7.978 17.6694L8.368 17.9215L8.711 18.1323L9 18.3027L9.455 18.0314L9.822 17.7995C10.0173 17.6744 10.2263 17.5342 10.449 17.3789L10.907 17.0502C11.6983 16.47 12.4415 15.8258 13.129 15.1239C14.728 13.4749 16 11.4185 16 9.07674C16 7.20439 15.2625 5.40874 13.9497 4.08479C12.637 2.76084 10.8565 2.01705 9 2.01705ZM9 5.04263C10.0609 5.04263 11.0783 5.46765 11.8284 6.2242C12.5786 6.98074 13 8.00683 13 9.07674C13 10.1467 12.5786 11.1727 11.8284 11.9293C11.0783 12.6858 10.0609 13.1108 9 13.1108C7.93913 13.1108 6.92172 12.6858 6.17157 11.9293C5.42143 11.1727 5 10.1467 5 9.07674C5 8.00683 5.42143 6.98074 6.17157 6.2242C6.92172 5.46765 7.93913 5.04263 9 5.04263ZM9 7.05969C8.46957 7.05969 7.96086 7.2722 7.58579 7.65047C7.21071 8.02874 7 8.54178 7 9.07674C7 9.6117 7.21071 10.1247 7.58579 10.503C7.96086 10.8813 8.46957 11.0938 9 11.0938C9.53043 11.0938 10.0391 10.8813 10.4142 10.503C10.7893 10.1247 11 9.6117 11 9.07674C11 8.54178 10.7893 8.02874 10.4142 7.65047C10.0391 7.2722 9.53043 7.05969 9 7.05969Z" fill="#8ECAE6"/>
</symbol>


<!-- our services -->

<symbol id="package" viewBox="0 0 25 25">
<path d="M19.6429 14.2857L15.3759 8.56964C14.6706 7.64705 14.2876 6.51845 14.2857 5.35714C14.2857 2.40357 16.6884 0 19.6429 0C22.5973 0 25 2.40357 25 5.35714C24.9981 6.52039 24.6138 7.65075 23.9062 8.57411L19.6429 14.2857ZM19.6429 1.78571C17.6732 1.78571 16.0714 3.3875 16.0714 5.35714C16.0714 6.12321 16.325 6.86339 16.8036 7.49732L19.6429 11.3009L22.4786 7.50179C22.9607 6.86339 23.2143 6.12321 23.2143 5.35714C23.2143 3.3875 21.6125 1.78571 19.6429 1.78571Z" fill="#023047"/>
<path d="M19.6429 7.14272C20.6291 7.14272 21.4286 6.34323 21.4286 5.357C21.4286 4.37078 20.6291 3.57129 19.6429 3.57129C18.6566 3.57129 17.8571 4.37078 17.8571 5.357C17.8571 6.34323 18.6566 7.14272 19.6429 7.14272Z" fill="#023047"/>
<path d="M23.2143 14.2856V17.8571H1.78571V3.57136H10.7143V1.78564H1.78571C1.31211 1.78564 0.85791 1.97378 0.523023 2.30867C0.188137 2.64355 0 3.09776 0 3.57136V17.8571C0 18.3307 0.188137 18.7849 0.523023 19.1198C0.85791 19.4546 1.31211 19.6428 1.78571 19.6428H8.92857V23.2142H5.35714V24.9999H19.6429V23.2142H16.0714V19.6428H23.2143C23.6879 19.6428 24.1421 19.4546 24.477 19.1198C24.8119 18.7849 25 18.3307 25 17.8571V14.2856H23.2143ZM14.2857 23.2142H10.7143V19.6428H14.2857V23.2142Z" fill="#023047"/>
</symbol>

<symbol id="flight" viewBox="0 0 25 25">
<path d="M6.25 25V21.875L10 19.25V14.75L0 18.75V15L10 8V2.5C10 1.8125 10.245 1.22417 10.735 0.735002C11.225 0.245835 11.8133 0.000835452 12.5 2.11864e-06C13.1867 -0.000831215 13.7754 0.244169 14.2663 0.735002C14.7571 1.22584 15.0017 1.81417 15 2.5V8L25 15V18.75L15 14.75V19.25L18.75 21.875V25L12.5 23.125L6.25 25Z" fill="#023047"/>
</symbol>

<symbol id="Reservations" viewBox="0 0 25 25">
<path d="M0 25V0H2.27273V16.6667H11.3636V3.33333H20.4545C21.7045 3.33333 22.7746 3.98611 23.6648 5.29167C24.5549 6.59722 25 8.16667 25 10V25H22.7273V20H2.27273V25H0ZM6.81818 15C5.87121 15 5.06629 14.5139 4.40341 13.5417C3.74053 12.5694 3.40909 11.3889 3.40909 10C3.40909 8.61111 3.74053 7.43056 4.40341 6.45833C5.06629 5.48611 5.87121 5 6.81818 5C7.76515 5 8.57008 5.48611 9.23295 6.45833C9.89583 7.43056 10.2273 8.61111 10.2273 10C10.2273 11.3889 9.89583 12.5694 9.23295 13.5417C8.57008 14.5139 7.76515 15 6.81818 15ZM13.6364 16.6667H22.7273V10C22.7273 9.08333 22.5049 8.29889 22.0602 7.64667C21.6155 6.99444 21.0803 6.66778 20.4545 6.66667H13.6364V16.6667ZM6.81818 11.6667C7.14015 11.6667 7.41023 11.5067 7.62841 11.1867C7.84659 10.8667 7.9553 10.4711 7.95455 10C7.95379 9.52889 7.8447 9.13333 7.62727 8.81333C7.40985 8.49333 7.14015 8.33333 6.81818 8.33333C6.49621 8.33333 6.22652 8.49333 6.00909 8.81333C5.79167 9.13333 5.68258 9.52889 5.68182 10C5.68106 10.4711 5.79015 10.8672 6.00909 11.1883C6.22803 11.5094 6.49773 11.6689 6.81818 11.6667Z" fill="#023047"/>
</symbol>

<symbol id="insurance" viewBox="0 0 25 25">
<path fill-rule="evenodd" clip-rule="evenodd" d="M17.2819 0.0968695C17.724 0.029418 18.1703 -0.00289675 18.617 0.000203582C19.1691 0.000203582 19.6106 0.0424255 19.9521 0.0968695C20.742 0.224091 21.1851 0.937974 21.209 1.65797C21.2261 2.16352 21.2452 2.90574 21.259 3.90739C22.2181 3.92184 22.9282 3.94184 23.4122 3.95962C24.1021 3.98462 24.7856 4.44739 24.9069 5.27238C24.9601 5.62905 25 6.09015 25 6.66682C25 7.24348 24.9596 7.70459 24.9074 8.06125C24.7856 8.88624 24.1021 9.34902 23.4128 9.37402C22.9287 9.39179 22.2181 9.41179 21.259 9.42624C21.2496 10.1762 21.2329 10.9261 21.209 11.6757C21.1851 12.3957 20.742 13.1095 19.9521 13.2368C19.6106 13.2912 19.1691 13.3334 18.617 13.3334C18.0649 13.3334 17.6234 13.2912 17.2819 13.2368C16.492 13.1095 16.0489 12.3957 16.025 11.6757C16.008 11.1701 15.9888 10.4279 15.975 9.42624C15.2571 9.41638 14.5394 9.39897 13.8218 9.37402C13.1319 9.34902 12.4484 8.88624 12.3271 8.06125C12.2622 7.59959 12.231 7.13342 12.234 6.66682C12.234 6.09015 12.2745 5.62905 12.3266 5.27238C12.4484 4.44739 13.1319 3.98462 13.8213 3.95962C14.3053 3.94184 15.016 3.92184 15.975 3.90739C15.9888 2.90574 16.008 2.16407 16.025 1.65852C16.0489 0.937974 16.492 0.223535 17.2819 0.0968695ZM1.225 13.8184C0.947235 13.909 0.701218 14.0831 0.517755 14.319C0.334293 14.5548 0.22154 14.842 0.193617 15.1445C0.106915 16.0579 0 17.4734 0 18.8889C0 20.2034 0.0925532 21.5184 0.175 22.4306C0.207099 22.7806 0.350084 23.1095 0.581314 23.3651C0.812544 23.6207 1.1188 23.7884 1.4516 23.8417C3.70266 24.22 8.78989 25 12.3846 25C15.1059 25 20.5505 23.0867 23.0963 22.1328C23.9255 21.8217 24.5351 20.9734 24.266 20.0978C23.9048 18.9256 23.1383 18.4812 22.6085 18.3128C22.2468 18.1978 21.8676 18.2445 21.4952 18.3117C19.7532 18.6278 14.3957 19.5678 12.3846 19.5678C11.4362 19.5678 10.1415 19.3867 9.38351 19.2662C9.20895 19.2373 9.05004 19.1442 8.93558 19.0035C8.82112 18.8629 8.75868 18.6841 8.75957 18.4995C8.75957 18.0384 9.13617 17.6762 9.57606 17.7134L13.6798 18.0634C14.609 18.1423 15.4266 17.3651 15.2138 16.4167C15.1 15.9073 14.9479 15.4834 14.7968 15.1445C14.4809 14.4373 13.8218 14.0134 13.0979 13.819C11.6032 13.4173 8.83085 12.7779 6.34255 12.7779C4.68564 12.7779 2.46011 13.4168 1.225 13.8184Z" fill="#023047"/>
</symbol>

<symbol id="visa" viewBox="0 0 25 25">
<path d="M4.58008 5.5957C4.35059 5.64941 4.49707 5.63965 4.30664 5.66406C3.49121 5.83984 4.09668 5.99609 4.58008 5.5957ZM18.9209 5.92285C18.9795 5.88379 19.1846 5.68359 18.5449 5.48828C18.584 5.68848 18.4131 5.66895 18.4131 5.78125C18.8867 6.21094 19.082 6.95801 19.6875 7.11426C19.8047 6.57715 19.1504 6.31348 18.9209 5.92285ZM4.14551 5.43945C4.21875 5.87402 4.5459 4.98047 4.55078 4.66309C4.42383 4.73633 4.29688 4.80957 4.16504 4.86816C4.47266 5.02441 4.2041 5.19043 3.87207 5.43945C3.19824 6.2793 4.50195 4.78516 4.14551 5.43945ZM12.5 0C5.5957 0 0 5.5957 0 12.5C0 19.3994 5.5957 25 12.5 25C19.4043 25 25 19.3994 25 12.5C25 5.5957 19.4043 0 12.5 0ZM12.832 4.18945L12.8906 4.20898C12.6562 4.51172 14.1113 5.39551 13.0664 5.46875C12.0898 5.74707 13.4766 5.21484 12.7197 5.30762C13.1201 4.75098 12.4023 4.74121 12.832 4.18945ZM6.9043 4.99023C6.55273 4.69727 5.44922 5.39062 5.83496 5.22461C6.79199 4.84863 5.89844 5.26367 6.12305 5.71289C5.91797 6.1377 6.05469 5.29297 5.54688 5.7959C5.18066 5.87891 4.28223 6.70898 4.39453 6.45508C4.36523 6.85059 3.3252 7.31934 3.18359 7.97852C2.8418 8.8916 3.10059 7.94434 3.03711 7.58789C2.54883 6.96777 1.66016 8.6377 1.92383 9.29688C2.36816 8.51562 2.33398 9.21387 2.01172 9.56055C2.33887 10.1611 1.71387 10.9424 2.33398 11.3867C2.60742 11.4502 3.1543 10.4688 2.91504 11.4893C3.08105 10.6055 3.37402 11.6992 3.84766 11.4551C3.87695 11.9189 4.16504 11.7041 4.22852 12.2656C5.01953 12.207 5.74219 13.5449 4.7998 13.7988C4.94141 13.7598 5.21973 14.0088 5.54199 13.8184C6.08887 14.2529 7.5293 14.3066 7.56836 15.3809C6.57715 15.8545 7.32422 17.1533 6.46484 17.6172C5.47852 17.4707 6.12793 18.833 5.71289 18.6768C5.87891 19.6582 4.7168 18.5498 5.16602 19.0918C5.99121 19.5996 4.80469 19.4971 5.17578 19.8682C4.76074 19.7803 5.43457 20.6396 5.54688 20.957C6.14258 21.9238 5.03418 20.7422 4.70703 20.4199C4.39453 19.7949 3.65723 18.5986 3.45215 17.6172C3.33496 16.1914 2.23145 15.2344 1.97754 13.8428C1.72363 13.0664 2.67578 11.8213 2.16309 11.3867C1.71875 11.04 1.89941 9.85352 1.63574 9.22852C2.29492 6.37207 4.38965 3.96484 6.9043 2.53906C6.64551 2.72949 8.38379 2.0459 8.18359 2.21191C8.12988 2.33398 9.19922 1.74805 9.84375 1.66016C9.77539 1.66992 8.16895 2.24609 8.61328 2.16797C7.9248 2.50488 8.54492 2.31445 8.88672 2.14355C8.20312 2.64648 7.67578 2.50488 6.89941 2.94922C6.11816 3.1543 6.2793 3.96484 5.72266 4.37012C6.0498 4.42871 6.87012 3.52539 7.34863 3.20801C8.44727 2.67578 6.79199 4.1748 7.83691 3.53027C7.48535 3.85742 7.55859 4.37988 7.34375 4.52637C7.23633 4.49707 7.76855 4.78027 6.9043 4.99023ZM8.61328 2.74414C8.50098 2.89551 8.34473 3.22266 8.25195 3.02246C8.125 3.08594 8.07617 3.35938 7.83691 3.13965C7.97852 3.03711 8.125 2.79297 7.84668 2.94434C7.97363 2.80762 9.10645 2.42188 9.04297 2.27539C9.24316 2.14844 9.22363 2.08496 8.99414 2.16309C8.87695 2.12402 9.27246 1.79199 9.7998 1.74805C9.87305 1.74805 9.90234 1.79688 9.77051 1.78223C8.97461 2.02637 9.31641 1.95801 9.85352 1.78223C9.64844 1.89941 9.50684 1.93359 9.47266 1.9873C10.0098 1.79199 9.44336 2.12891 9.56543 2.10449C9.41406 2.18262 9.58984 2.20703 9.29688 2.31934C9.35059 2.27539 8.81836 2.63672 9.13574 2.5293C8.82812 2.82227 8.69141 2.82715 8.61328 2.74414ZM9.08203 3.44238C9.0918 2.97363 9.76562 2.67578 9.68262 2.65137C10.5127 2.26074 9.39453 2.66602 10.0488 2.31445C10.293 2.29004 10.8105 1.50879 11.5283 1.45996C12.3193 1.2207 11.9531 1.47461 12.5391 1.25L12.4219 1.34766C12.3193 1.3623 12.4463 1.54297 12.0752 1.81641C12.0361 2.24121 11.3672 2.0459 11.6992 2.5C11.4844 2.19238 11.1621 2.49023 11.5674 2.51953C11.1328 2.85156 10.1221 2.91016 9.63867 3.46191C9.32617 3.91113 9.03809 3.76953 9.08203 3.44238ZM12.5537 5.00488C12.2217 5.80566 11.8994 4.8877 12.4854 4.74121C12.6318 4.81934 12.6904 4.84375 12.5537 5.00488ZM11.3037 3.40332C11.2061 3.04199 11.2842 3.23242 11.8652 3.06152C12.2656 3.34961 11.5088 3.54004 11.3037 3.40332ZM20.3955 17.7344C19.9365 16.9434 20.9521 16.2109 21.2939 15.5469C21.25 16.3232 21.1523 17.0898 20.3955 17.7344ZM22.124 8.69629C21.626 8.73535 21.1768 8.85254 20.7275 8.56934C19.6924 7.43652 20.918 9.84863 21.2598 8.8623C22.4902 9.33105 21.2402 11.3525 20.4639 11.1426C20.0293 10.2051 19.4922 9.1748 18.5449 8.71582C19.2725 9.52148 19.6338 10.5127 20.415 11.2402C20.4688 12.2559 21.499 10.8691 21.4355 11.6553C21.5332 13.0078 19.9072 13.8184 20.1904 15.1758C20.7959 16.4111 19.0234 16.6357 19.2236 17.7441C18.5107 18.54 17.749 19.6143 16.4697 19.4434C16.4697 18.7695 16.1279 18.1982 16.0498 17.5049C15.3564 16.626 16.7822 15.6836 15.8984 14.7656C14.8779 14.5361 16.1084 13.1299 15.0586 13.2617C14.4287 12.6318 13.5059 13.2422 12.6025 13.2471C11.4697 13.3545 10.3027 11.8555 10.8057 10.7959C10.4053 9.69238 12.0752 9.37012 12.1191 8.39844C12.9199 7.72949 14.0576 7.8125 15.1416 7.65625C15.0635 8.43262 15.8838 8.4375 16.5039 8.69629C16.8506 7.85645 17.9297 8.83301 18.667 8.30078C18.9209 7.06055 17.9492 7.80762 17.3926 7.41211C16.7188 6.42578 18.833 6.9043 18.6133 6.38672C17.793 6.38184 18.2568 5.37598 17.6758 5.9375C18.1982 6.03027 17.583 6.44043 17.5977 5.97168C16.8066 5.74219 17.5684 6.87012 17.168 6.97754C16.5576 6.72363 16.8457 7.26562 16.9092 7.34863C16.6455 7.91992 16.3232 6.50879 15.5762 6.54785C14.834 5.86914 15.2832 6.85547 15.9277 7.0166C15.791 7.05566 16.0059 7.61719 15.835 7.37793C15.3027 6.64551 14.292 6.15723 13.6914 7.05566C13.6279 7.89551 11.9189 8.13477 12.1924 7.15332C11.792 6.1377 13.4326 7.12402 13.2812 6.31348C12.2266 5.61523 13.5693 5.83984 13.9258 5.18555C14.7363 5.20996 13.96 4.52148 14.3408 4.32129C14.3018 5.06836 14.9609 4.92676 15.4834 4.78516C15.3564 4.35547 15.7959 4.37012 15.5273 4.01367C16.7383 3.53027 14.6045 4.23828 15.0342 3.17871C14.5117 2.81738 14.8145 3.97461 15.0342 4.09668C15.0488 4.45312 14.7461 4.89258 14.3311 4.14551C13.7256 4.54102 13.7891 3.74512 13.75 3.82812C13.6816 3.52051 14.209 3.50586 14.2139 2.96875C14.1699 2.62695 14.1797 2.44629 14.4238 2.42676C14.4434 2.47559 15.4248 2.49023 15.7715 2.89551C14.8242 2.70508 15.6299 3.05176 16.0547 3.24707C15.6006 2.89062 16.2354 3.24707 15.8643 2.8418C16.0107 2.87109 15.459 2.28516 16.0254 2.79785C15.7178 2.43164 16.626 2.53906 16.0889 2.26562C16.875 2.48535 16.4111 2.28516 15.9473 2.08496C14.668 1.32324 18.208 3.11523 16.7627 2.31934C17.6855 2.51953 14.79 1.60645 16.1084 2.00684C15.6055 1.78711 16.0938 1.90918 16.5479 2.05078C15.7324 1.79688 14.5117 1.32324 14.5605 1.30371C14.8438 1.32324 15.1221 1.38672 15.3906 1.46484C16.2256 1.71387 15.1514 1.40625 15.3809 1.41113C18.252 2.14844 20.7666 4.07227 22.2949 6.58691C22.6514 6.96289 23.623 9.44824 23.1152 8.34473C23.3447 9.22363 23.3789 10.1709 23.501 11.0693C23.2471 10.7861 22.9639 9.74121 22.7197 9.16016C22.6172 9.38477 22.5 8.84277 22.124 8.69629Z" fill="#023047"/>
</symbol>

<symbol id="couple" viewBox="0 0 25 21">
<path d="M0 21V17.325C0 16.5813 0.165909 15.8979 0.497727 15.2749C0.829545 14.6519 1.2697 14.1759 1.81818 13.8469C2.99242 13.1688 4.18561 12.6604 5.39773 12.3218C6.60985 11.9831 7.84091 11.8134 9.09091 11.8125C10.3409 11.8116 11.572 11.9814 12.7841 12.3218C13.9962 12.6621 15.1894 13.1705 16.3636 13.8469C16.9129 14.175 17.3534 14.651 17.6852 15.2749C18.017 15.8988 18.1826 16.5821 18.1818 17.325V21H0ZM20.4545 21V17.0625C20.4545 16.1 20.2227 15.1756 19.7591 14.2892C19.2955 13.4028 18.6371 12.6429 17.7841 12.0094C18.75 12.1406 19.6591 12.3651 20.5114 12.6827C21.3636 13.0003 22.1591 13.3884 22.8977 13.8469C23.5795 14.2844 24.1004 14.7709 24.4602 15.3064C24.8201 15.8419 25 16.4273 25 17.0625V21H20.4545ZM9.09091 10.5C7.84091 10.5 6.77083 9.98596 5.88068 8.95783C4.99053 7.92971 4.54545 6.69377 4.54545 5.25003C4.54545 3.80628 4.99053 2.57034 5.88068 1.54222C6.77083 0.514096 7.84091 3.36533e-05 9.09091 3.36533e-05C10.3409 3.36533e-05 11.411 0.514096 12.3011 1.54222C13.1913 2.57034 13.6364 3.80628 13.6364 5.25003C13.6364 6.69377 13.1913 7.92971 12.3011 8.95783C11.411 9.98596 10.3409 10.5 9.09091 10.5ZM20.4545 5.25003C20.4545 6.69377 20.0095 7.92971 19.1193 8.95783C18.2292 9.98596 17.1591 10.5 15.9091 10.5C15.7008 10.5 15.4356 10.4729 15.1136 10.4186C14.7917 10.3644 14.5265 10.304 14.3182 10.2375C14.8295 9.53752 15.2227 8.76096 15.4977 7.90783C15.7727 7.05471 15.9098 6.16877 15.9091 5.25003C15.9083 4.33128 15.7712 3.44534 15.4977 2.59222C15.2242 1.73909 14.8311 0.962532 14.3182 0.262533C14.5833 0.153158 14.8485 0.0818463 15.1136 0.0485963C15.3788 0.0153464 15.6439 -0.000841345 15.9091 3.36533e-05C17.1591 3.36533e-05 18.2292 0.514096 19.1193 1.54222C20.0095 2.57034 20.4545 3.80628 20.4545 5.25003Z" fill="#023047"/>
</symbol>


<!-- feedback -->

<symbol id="feedback" viewBox="0 0 25 25">
<path d="M15.9628 13C16.1503 13.0875 16.3628 13.125 16.5627 13.125C16.9752 13.125 17.3627 12.9625 17.6627 12.675L20.3876 10H21.5626C23.4625 10 25 8.4625 25 6.5625V3.4375C25 1.5375 23.4625 0 21.5626 0H15.9378C14.0378 0 12.5004 1.5375 12.5004 3.4375V6.5625C12.5004 8.1375 13.5628 9.4625 15.0003 9.875V11.5625C15.0003 12.1875 15.3878 12.75 15.9628 13ZM14.3753 3.4375C14.3753 2.575 15.0753 1.875 15.9378 1.875H21.5626C22.4251 1.875 23.1251 2.575 23.1251 3.4375V6.5625C23.1251 7.425 22.4251 8.125 21.5626 8.125H19.6127L16.8752 10.8125V8.125H15.9378C15.0753 8.125 14.3753 7.425 14.3753 6.5625V3.4375ZM7.50052 14.375C5.08809 14.375 3.12565 12.4125 3.12565 10C3.12565 7.5875 5.08809 5.625 7.50052 5.625C9.91295 5.625 11.8754 7.5875 11.8754 10C11.8754 12.4125 9.91295 14.375 7.50052 14.375ZM7.50052 7.5C6.12556 7.5 5.00059 8.625 5.00059 10C5.00059 11.375 6.12556 12.5 7.50052 12.5C8.87548 12.5 10.0004 11.375 10.0004 10C10.0004 8.625 8.87548 7.5 7.50052 7.5ZM7.50052 25C4.92559 25 2.95065 24.3 1.62569 22.9125C-0.0442581 21.1575 -0.00300937 18.945 0.000740521 18.7162V18.7C0.000740521 17.3625 1.12571 16.25 2.50067 16.25H12.5004C13.8753 16.25 15.0003 17.375 15.0003 18.75L15.0015 18.7575C15.0053 18.9163 15.0578 21.145 13.3766 22.9125C12.0504 24.3 10.0754 25 7.50052 25ZM2.50067 18.125C2.15068 18.125 1.87568 18.4 1.87568 18.75V18.7562C1.87568 18.875 1.85444 20.4412 3.00065 21.6375C3.95062 22.625 5.46308 23.125 7.50052 23.125C9.53796 23.125 11.0629 22.6125 12.0129 21.6125C13.1541 20.4225 13.1279 18.8725 13.1254 18.79V18.7875C13.1254 18.4 12.8379 18.1125 12.5004 18.1125H2.50067V18.125Z" fill="#8ECAE6"/>
</symbol>


<!-- footer -->

<symbol id="facebook" viewBox="0 0 15 25">
<path d="M10 14.375H13.5714L15 9.375H10V6.875C10 5.5875 10 4.375 12.8571 4.375H15V0.175C14.5343 0.12125 12.7757 0 10.9186 0C7.04 0 4.28571 2.07125 4.28571 5.875V9.375H0V14.375H4.28571V25H10V14.375Z" fill="#023047"/>
</symbol>

<symbol id="instagram" viewBox="0 0 25 25">
<path d="M12.5013 8.75C11.5067 8.75 10.5529 9.14509 9.8496 9.84835C9.14634 10.5516 8.75125 11.5054 8.75125 12.5C8.75125 13.4946 9.14634 14.4484 9.8496 15.1517C10.5529 15.8549 11.5067 16.25 12.5013 16.25C13.4958 16.25 14.4496 15.8549 15.1529 15.1517C15.8562 14.4484 16.2513 13.4946 16.2513 12.5C16.2513 11.5054 15.8562 10.5516 15.1529 9.84835C14.4496 9.14509 13.4958 8.75 12.5013 8.75ZM12.5013 6.25C14.1589 6.25 15.7486 6.90848 16.9207 8.08058C18.0928 9.25268 18.7512 10.8424 18.7512 12.5C18.7512 14.1576 18.0928 15.7473 16.9207 16.9194C15.7486 18.0915 14.1589 18.75 12.5013 18.75C10.8436 18.75 9.25394 18.0915 8.08183 16.9194C6.90973 15.7473 6.25125 14.1576 6.25125 12.5C6.25125 10.8424 6.90973 9.25268 8.08183 8.08058C9.25394 6.90848 10.8436 6.25 12.5013 6.25ZM20.6262 5.9375C20.6262 6.3519 20.4616 6.74933 20.1686 7.04235C19.8756 7.33538 19.4781 7.5 19.0637 7.5C18.6493 7.5 18.2519 7.33538 17.9589 7.04235C17.6659 6.74933 17.5012 6.3519 17.5012 5.9375C17.5012 5.5231 17.6659 5.12567 17.9589 4.83265C18.2519 4.53962 18.6493 4.375 19.0637 4.375C19.4781 4.375 19.8756 4.53962 20.1686 4.83265C20.4616 5.12567 20.6262 5.5231 20.6262 5.9375ZM12.5013 2.5C9.40875 2.5 8.90375 2.50875 7.465 2.5725C6.485 2.61875 5.8275 2.75 5.2175 2.9875C4.70729 3.17546 4.2459 3.47579 3.8675 3.86625C3.47659 4.24452 3.17583 4.70592 2.9875 5.21625C2.75 5.82875 2.61875 6.485 2.57375 7.46375C2.50875 8.84375 2.5 9.32625 2.5 12.5C2.5 15.5938 2.50875 16.0975 2.5725 17.5362C2.61875 18.515 2.75 19.1737 2.98625 19.7825C3.19875 20.3263 3.44875 20.7175 3.86375 21.1325C4.285 21.5525 4.67625 21.8037 5.21375 22.0112C5.83125 22.25 6.48875 22.3825 7.46375 22.4275C8.84375 22.4925 9.32625 22.5 12.5 22.5C15.5938 22.5 16.0975 22.4912 17.5362 22.4275C18.5138 22.3812 19.1712 22.25 19.7825 22.0138C20.2927 21.8258 20.7541 21.5255 21.1325 21.135C21.5538 20.715 21.805 20.3237 22.0125 19.785C22.25 19.17 22.3825 18.5125 22.4275 17.535C22.4925 16.1562 22.5 15.6725 22.5 12.5C22.5 9.4075 22.4912 8.9025 22.4275 7.46375C22.3812 6.48625 22.2488 5.82625 22.0125 5.21625C21.8245 4.70604 21.5242 4.24465 21.1337 3.86625C20.7555 3.47534 20.2941 3.17458 19.7837 2.98625C19.1712 2.74875 18.5138 2.6175 17.5362 2.5725C16.1575 2.5075 15.675 2.5 12.5 2.5M12.5 0C15.8962 0 16.32 0.0124999 17.6537 0.0749999C18.9837 0.1375 19.8912 0.34625 20.6875 0.65625C21.5125 0.97375 22.2075 1.40375 22.9025 2.0975C23.5384 2.72217 24.0302 3.47809 24.3438 4.3125C24.6525 5.10875 24.8625 6.01625 24.925 7.3475C24.9838 8.68 25 9.10375 25 12.5C25 15.8962 24.9875 16.32 24.925 17.6525C24.8625 18.985 24.6525 19.89 24.3438 20.6875C24.0302 21.5219 23.5384 22.2778 22.9025 22.9025C22.2778 23.5384 21.5219 24.0302 20.6875 24.3438C19.8912 24.6525 18.9837 24.8625 17.6537 24.925C16.32 24.9838 15.8962 25 12.5 25C9.10375 25 8.68 24.9875 7.34625 24.925C6.01625 24.8625 5.11 24.6525 4.3125 24.3438C3.47809 24.0302 2.72217 23.5384 2.0975 22.9025C1.46163 22.2778 0.96977 21.5219 0.65625 20.6875C0.34625 19.8912 0.1375 18.9837 0.0749999 17.6525C0.0149999 16.32 0 15.8962 0 12.5C0 9.10375 0.0124999 8.68 0.0749999 7.3475C0.1375 6.015 0.34625 5.11 0.65625 4.3125C0.96977 3.47809 1.46163 2.72217 2.0975 2.0975C2.72217 1.46163 3.47809 0.96977 4.3125 0.65625C5.10875 0.34625 6.015 0.1375 7.34625 0.0749999C8.68125 0.0162499 9.105 0 12.5013 0" fill="#023047"/>
</symbol>

<symbol id="whatsapp" viewBox="0 0 25 25">
<path d="M21.3568 3.63756C20.2049 2.48019 18.8329 1.56252 17.321 0.938018C15.809 0.313515 14.1873 -0.00532895 12.5502 6.73687e-05C5.69095 6.73687e-05 0.100503 5.56255 0.100503 12.3875C0.100503 14.575 0.678392 16.7 1.75879 18.575L0 25L6.59548 23.275C8.41708 24.2625 10.4648 24.7875 12.5502 24.7875C19.4095 24.7875 25 19.225 25 12.4C25 9.08754 23.706 5.97505 21.3568 3.63756ZM12.5502 22.6875C10.691 22.6875 8.86935 22.1875 7.27387 21.25L6.89698 21.025L2.97739 22.05L4.0201 18.25L3.76884 17.8625C2.73561 16.2213 2.18709 14.3241 2.18593 12.3875C2.18593 6.71255 6.83417 2.08756 12.5377 2.08756C15.3015 2.08756 17.902 3.16256 19.8492 5.11255C20.8136 6.06738 21.5778 7.20323 22.0975 8.45421C22.6172 9.70518 22.8822 11.0464 22.8769 12.4C22.902 18.075 18.2538 22.6875 12.5502 22.6875ZM18.2286 14.9875C17.9146 14.8375 16.3819 14.0875 16.1055 13.975C15.8166 13.875 15.6156 13.825 15.402 14.125C15.1884 14.4375 14.598 15.1375 14.4221 15.3375C14.2462 15.55 14.0578 15.575 13.7437 15.4125C13.4296 15.2625 12.4246 14.925 11.2437 13.875C10.3141 13.05 9.69849 12.0375 9.51005 11.725C9.33417 11.4125 9.48492 11.25 9.64824 11.0875C9.78643 10.95 9.96231 10.725 10.1131 10.55C10.2638 10.375 10.3266 10.2375 10.4271 10.0375C10.5276 9.82504 10.4774 9.65004 10.402 9.50004C10.3266 9.35004 9.69849 7.82505 9.44723 7.20005C9.19598 6.60005 8.93216 6.67505 8.74372 6.66255H8.1407C7.92713 6.66255 7.6005 6.73755 7.31156 7.05005C7.03517 7.36255 6.23115 8.11255 6.23115 9.63754C6.23115 11.1625 7.34925 12.6375 7.5 12.8375C7.65075 13.05 9.69849 16.175 12.8141 17.5125C13.5553 17.8375 14.1332 18.025 14.5854 18.1625C15.3266 18.4 16.005 18.3625 16.5452 18.2875C17.1482 18.2 18.392 17.5375 18.6432 16.8125C18.907 16.0875 18.907 15.475 18.8191 15.3375C18.7312 15.2 18.5427 15.1375 18.2286 14.9875Z" fill="#023047"/>
</symbol>

<symbol id="telephone" viewBox="0 0 25 25">
<path d="M23.5417 25C20.6481 25 17.7894 24.3694 14.9653 23.1083C12.1412 21.8472 9.57176 20.0588 7.25694 17.7431C4.94213 15.4273 3.15417 12.8579 1.89306 10.0347C0.631944 7.21157 0.000925926 4.35278 0 1.45833C0 1.04167 0.138889 0.694444 0.416667 0.416667C0.694444 0.138889 1.04167 0 1.45833 0H7.08333C7.40741 0 7.69676 0.110185 7.95139 0.330555C8.20602 0.550926 8.35648 0.811111 8.40278 1.11111L9.30556 5.97222C9.35185 6.34259 9.34028 6.65509 9.27083 6.90972C9.20139 7.16435 9.07407 7.38426 8.88889 7.56944L5.52083 10.9722C5.9838 11.8287 6.53333 12.656 7.16944 13.4542C7.80555 14.2523 8.50602 15.0222 9.27083 15.7639C9.98843 16.4815 10.7407 17.1472 11.5278 17.7611C12.3148 18.375 13.1481 18.9361 14.0278 19.4444L17.2917 16.1806C17.5 15.9722 17.7722 15.8162 18.1083 15.7125C18.4444 15.6088 18.7741 15.5796 19.0972 15.625L23.8889 16.5972C24.213 16.6898 24.4792 16.8579 24.6875 17.1014C24.8958 17.3449 25 17.6167 25 17.9167V23.5417C25 23.9583 24.8611 24.3056 24.5833 24.5833C24.3056 24.8611 23.9583 25 23.5417 25ZM4.20139 8.33333L6.49306 6.04167L5.90278 2.77778H2.8125C2.92824 3.72685 3.09028 4.66435 3.29861 5.59028C3.50694 6.5162 3.80787 7.43056 4.20139 8.33333ZM16.6319 20.7639C17.5347 21.1574 18.4551 21.4699 19.3931 21.7014C20.331 21.9329 21.2741 22.0833 22.2222 22.1528V19.0972L18.9583 18.4375L16.6319 20.7639Z" fill="#8ECAE6"/>
</symbol>

<symbol id="footer_message" viewBox="0 0 29 25">
<path d="M29 3.125C29 1.40625 27.695 0 26.1 0H2.9C1.305 0 0 1.40625 0 3.125V21.875C0 23.5938 1.305 25 2.9 25H26.1C27.695 25 29 23.5938 29 21.875V3.125ZM26.1 3.125L14.5 10.9375L2.9 3.125H26.1ZM26.1 21.875H2.9V6.25L14.5 14.0625L26.1 6.25V21.875Z" fill="#8ECAE6"/>
</symbol>

<symbol id="footer_address" viewBox="0 0 22 25">
<path d="M11.7467 23.7697C11.5291 23.9194 11.2679 24 11 24C10.7321 24 10.4709 23.9194 10.2533 23.7697C3.81446 19.3716 -3.01908 10.3251 3.88913 3.78807C5.78564 2.00029 8.3397 0.998881 11 1C13.6667 1 16.2255 2.00304 18.1109 3.7868C25.0191 10.3238 18.1855 19.3691 11.7467 23.7697Z" stroke="#8ECAE6" stroke-width="1.5" stroke-linecap="round" stroke-linejoin="round"/>
<path d="M11.0001 12.5002C11.7074 12.5002 12.3857 12.231 12.8858 11.7517C13.3859 11.2725 13.6669 10.6224 13.6669 9.94468C13.6669 9.26691 13.3859 8.61691 12.8858 8.13765C12.3857 7.6584 11.7074 7.38916 11.0001 7.38916C10.2929 7.38916 9.61456 7.6584 9.11445 8.13765C8.61433 8.61691 8.33337 9.26691 8.33337 9.94468C8.33337 10.6224 8.61433 11.2725 9.11445 11.7517C9.61456 12.231 10.2929 12.5002 11.0001 12.5002Z" stroke="#8ECAE6" stroke-width="1.5" stroke-linecap="round" stroke-linejoin="round"/>
<!--  -->
</symbol>



<!-- about page -->


<symbol id="right_angle" viewBox="0 0 9 16">
<path d="M1 1L8 8L1 15" stroke="white" stroke-width="2" stroke-linecap="round" stroke-linejoin="round"/>
</symbol>


<!-- our tour page -->

<symbol id="fiveStar" viewBox="0 0 70 10">
<path d="M1.9125 10L2.725 6.30263L0 3.81579L3.6 3.48684L5 0L6.4 3.48684L10 3.81579L7.275 6.30263L8.0875 10L5 8.03947L1.9125 10Z" fill="white"/>
<path d="M16.9125 10L17.725 6.30263L15 3.81579L18.6 3.48684L20 0L21.4 3.48684L25 3.81579L22.275 6.30263L23.0875 10L20 8.03947L16.9125 10Z" fill="white"/>
<path d="M31.9125 10L32.725 6.30263L30 3.81579L33.6 3.48684L35 0L36.4 3.48684L40 3.81579L37.275 6.30263L38.0875 10L35 8.03947L31.9125 10Z" fill="white"/>
<path d="M46.9125 10L47.725 6.30263L45 3.81579L48.6 3.48684L50 0L51.4 3.48684L55 3.81579L52.275 6.30263L53.0875 10L50 8.03947L46.9125 10Z" fill="white"/>
<path d="M63.425 7.80263L65 6.80263L66.575 7.81579L66.1625 5.92105L67.55 4.6579L65.725 4.48684L65 2.69737L64.275 4.47368L62.45 4.64474L63.8375 5.92105L63.425 7.80263ZM61.9125 10L62.725 6.30263L60 3.81579L63.6 3.48684L65 0L66.4 3.48684L70 3.81579L67.275 6.30263L68.0875 10L65 8.03947L61.9125 10Z" fill="white"/>
</symbol>

<!-- blog -->

<symbol id="blog_search" viewBox="0 0 18 18">
<path d="M6.5 13C4.68333 13 3.146 12.3707 1.888 11.112C0.63 9.85333 0.000667196 8.316 5.29101e-07 6.5C-0.000666138 4.684 0.628667 3.14667 1.888 1.888C3.14733 0.629333 4.68467 0 6.5 0C8.31533 0 9.853 0.629333 11.113 1.888C12.373 3.14667 13.002 4.684 13 6.5C13 7.23333 12.8833 7.925 12.65 8.575C12.4167 9.225 12.1 9.8 11.7 10.3L17.3 15.9C17.4833 16.0833 17.575 16.3167 17.575 16.6C17.575 16.8833 17.4833 17.1167 17.3 17.3C17.1167 17.4833 16.8833 17.575 16.6 17.575C16.3167 17.575 16.0833 17.4833 15.9 17.3L10.3 11.7C9.8 12.1 9.225 12.4167 8.575 12.65C7.925 12.8833 7.23333 13 6.5 13ZM6.5 11C7.75 11 8.81267 10.5627 9.688 9.688C10.5633 8.81333 11.0007 7.75067 11 6.5C10.9993 5.24933 10.562 4.187 9.688 3.313C8.814 2.439 7.75133 2.00133 6.5 2C5.24867 1.99867 4.18633 2.43633 3.313 3.313C2.43967 4.18967 2.002 5.252 2 6.5C1.998 7.748 2.43567 8.81067 3.313 9.688C4.19033 10.5653 5.25267 11.0027 6.5 11Z" fill="white"/>
</symbol>


<symbol id="call_icon" viewBox="0 0 18 18">
<path d="M16.95 18C14.8667 18 12.8083 17.546 10.775 16.638C8.74167 15.73 6.89167 14.4423 5.225 12.775C3.55833 11.1077 2.271 9.25767 1.363 7.225C0.455 5.19233 0.000666667 3.134 0 1.05C0 0.75 0.0999999 0.5 0.3 0.3C0.5 0.0999999 0.75 0 1.05 0H5.1C5.33333 0 5.54167 0.0793332 5.725 0.238C5.90833 0.396667 6.01667 0.584 6.05 0.8L6.7 4.3C6.73333 4.56667 6.725 4.79167 6.675 4.975C6.625 5.15833 6.53333 5.31667 6.4 5.45L3.975 7.9C4.30833 8.51667 4.704 9.11233 5.162 9.687C5.62 10.2617 6.12433 10.816 6.675 11.35C7.19167 11.8667 7.73333 12.346 8.3 12.788C8.86667 13.23 9.46667 13.634 10.1 14L12.45 11.65C12.6 11.5 12.796 11.3877 13.038 11.313C13.28 11.2383 13.5173 11.2173 13.75 11.25L17.2 11.95C17.4333 12.0167 17.625 12.1377 17.775 12.313C17.925 12.4883 18 12.684 18 12.9V16.95C18 17.25 17.9 17.5 17.7 17.7C17.5 17.9 17.25 18 16.95 18ZM3.025 6L4.675 4.35L4.25 2H2.025C2.10833 2.68333 2.225 3.35833 2.375 4.025C2.525 4.69167 2.74167 5.35 3.025 6ZM11.975 14.95C12.625 15.2333 13.2877 15.4583 13.963 15.625C14.6383 15.7917 15.3173 15.9 16 15.95V13.75L13.65 13.275L11.975 14.95Z" fill="#023047"/>
</symbol>

<symbol id="contact_mail" viewBox="0 0 20 16">
<path d="M2 16C1.45 16 0.979333 15.8043 0.588 15.413C0.196667 15.0217 0.000666667 14.5507 0 14V2C0 1.45 0.196 0.979333 0.588 0.588C0.98 0.196666 1.45067 0.000666667 2 0H18C18.55 0 19.021 0.196 19.413 0.588C19.805 0.98 20.0007 1.45067 20 2V14C20 14.55 19.8043 15.021 19.413 15.413C19.0217 15.805 18.5507 16.0007 18 16H2ZM10 9L2 4V14H18V4L10 9ZM10 7L18 2H2L10 7ZM2 4V2V14V4Z" fill="#023047"/>
</symbol>

<symbol id="facebook" viewBox="0 0 20 20">
<path d="M20 10C20 4.48 15.52 0 10 0C4.48 0 0 4.48 0 10C0 14.84 3.44 18.87 8 19.8V13H6V10H8V7.5C8 5.57 9.57 4 11.5 4H14V7H12C11.45 7 11 7.45 11 8V10H14V13H11V19.95C16.05 19.45 20 15.19 20 10Z" fill="#023047"/>
</symbol>

<symbol id="Whatsapp" viewBox="0 0 20 20">
<path d="M17 2.91005C16.0831 1.98416 14.991 1.25002 13.7875 0.750416C12.584 0.250812 11.2931 -0.00426317 9.99 5.38951e-05C4.53 5.38951e-05 0.0800002 4.45005 0.0800002 9.91005C0.0800002 11.6601 0.54 13.3601 1.4 14.8601L0 20.0001L5.25 18.6201C6.7 19.4101 8.33 19.8301 9.99 19.8301C15.45 19.8301 19.9 15.3801 19.9 9.92005C19.9 7.27005 18.87 4.78005 17 2.91005ZM9.99 18.1501C8.51 18.1501 7.06 17.7501 5.79 17.0001L5.49 16.8201L2.37 17.6401L3.2 14.6001L3 14.2901C2.17755 12.9771 1.74092 11.4593 1.74 9.91005C1.74 5.37005 5.44 1.67005 9.98 1.67005C12.18 1.67005 14.25 2.53005 15.8 4.09005C16.5676 4.85392 17.1759 5.7626 17.5896 6.76338C18.0033 7.76417 18.2142 8.83714 18.21 9.92005C18.23 14.4601 14.53 18.1501 9.99 18.1501ZM14.51 11.9901C14.26 11.8701 13.04 11.2701 12.82 11.1801C12.59 11.1001 12.43 11.0601 12.26 11.3001C12.09 11.5501 11.62 12.1101 11.48 12.2701C11.34 12.4401 11.19 12.4601 10.94 12.3301C10.69 12.2101 9.89 11.9401 8.95 11.1001C8.21 10.4401 7.72 9.63005 7.57 9.38005C7.43 9.13005 7.55 9.00005 7.68 8.87005C7.79 8.76005 7.93 8.58005 8.05 8.44005C8.17 8.30005 8.22 8.19005 8.3 8.03005C8.38 7.86005 8.34 7.72005 8.28 7.60005C8.22 7.48005 7.72 6.26005 7.52 5.76005C7.32 5.28005 7.11 5.34005 6.96 5.33005H6.48C6.31 5.33005 6.05 5.39005 5.82 5.64005C5.6 5.89005 4.96 6.49005 4.96 7.71005C4.96 8.93005 5.85 10.1101 5.97 10.2701C6.09 10.4401 7.72 12.9401 10.2 14.0101C10.79 14.2701 11.25 14.4201 11.61 14.5301C12.2 14.7201 12.74 14.6901 13.17 14.6301C13.65 14.5601 14.64 14.0301 14.84 13.4501C15.05 12.8701 15.05 12.3801 14.98 12.2701C14.91 12.1601 14.76 12.1101 14.51 11.9901Z" fill="#023047"/>
</symbol>

<symbol id="instagram" viewBox="0 0 20 20">
<path d="M5.8 0H14.2C17.4 0 20 2.6 20 5.8V14.2C20 15.7383 19.3889 17.2135 18.3012 18.3012C17.2135 19.3889 15.7383 20 14.2 20H5.8C2.6 20 0 17.4 0 14.2V5.8C0 4.26174 0.61107 2.78649 1.69878 1.69878C2.78649 0.61107 4.26174 0 5.8 0ZM5.6 2C4.64522 2 3.72955 2.37928 3.05442 3.05442C2.37928 3.72955 2 4.64522 2 5.6V14.4C2 16.39 3.61 18 5.6 18H14.4C15.3548 18 16.2705 17.6207 16.9456 16.9456C17.6207 16.2705 18 15.3548 18 14.4V5.6C18 3.61 16.39 2 14.4 2H5.6ZM15.25 3.5C15.5815 3.5 15.8995 3.6317 16.1339 3.86612C16.3683 4.10054 16.5 4.41848 16.5 4.75C16.5 5.08152 16.3683 5.39946 16.1339 5.63388C15.8995 5.8683 15.5815 6 15.25 6C14.9185 6 14.6005 5.8683 14.3661 5.63388C14.1317 5.39946 14 5.08152 14 4.75C14 4.41848 14.1317 4.10054 14.3661 3.86612C14.6005 3.6317 14.9185 3.5 15.25 3.5ZM10 5C11.3261 5 12.5979 5.52678 13.5355 6.46447C14.4732 7.40215 15 8.67392 15 10C15 11.3261 14.4732 12.5979 13.5355 13.5355C12.5979 14.4732 11.3261 15 10 15C8.67392 15 7.40215 14.4732 6.46447 13.5355C5.52678 12.5979 5 11.3261 5 10C5 8.67392 5.52678 7.40215 6.46447 6.46447C7.40215 5.52678 8.67392 5 10 5ZM10 7C9.20435 7 8.44129 7.31607 7.87868 7.87868C7.31607 8.44129 7 9.20435 7 10C7 10.7956 7.31607 11.5587 7.87868 12.1213C8.44129 12.6839 9.20435 13 10 13C10.7956 13 11.5587 12.6839 12.1213 12.1213C12.6839 11.5587 13 10.7956 13 10C13 9.20435 12.6839 8.44129 12.1213 7.87868C11.5587 7.31607 10.7956 7 10 7Z" fill="#023047"/>
</symbol>

<symbol id="Linkedin" viewBox="0 0 18 18">
<path d="M16 0C16.5304 0 17.0391 0.210714 17.4142 0.585786C17.7893 0.960859 18 1.46957 18 2V16C18 16.5304 17.7893 17.0391 17.4142 17.4142C17.0391 17.7893 16.5304 18 16 18H2C1.46957 18 0.960859 17.7893 0.585786 17.4142C0.210714 17.0391 0 16.5304 0 16V2C0 1.46957 0.210714 0.960859 0.585786 0.585786C0.960859 0.210714 1.46957 0 2 0H16ZM15.5 15.5V10.2C15.5 9.33539 15.1565 8.5062 14.5452 7.89483C13.9338 7.28346 13.1046 6.94 12.24 6.94C11.39 6.94 10.4 7.46 9.92 8.24V7.13H7.13V15.5H9.92V10.57C9.92 9.8 10.54 9.17 11.31 9.17C11.6813 9.17 12.0374 9.3175 12.2999 9.58005C12.5625 9.8426 12.71 10.1987 12.71 10.57V15.5H15.5ZM3.88 5.56C4.32556 5.56 4.75288 5.383 5.06794 5.06794C5.383 4.75288 5.56 4.32556 5.56 3.88C5.56 2.95 4.81 2.19 3.88 2.19C3.43178 2.19 3.00193 2.36805 2.68499 2.68499C2.36805 3.00193 2.19 3.43178 2.19 3.88C2.19 4.81 2.95 5.56 3.88 5.56ZM5.27 15.5V7.13H2.5V15.5H5.27Z" fill="#023047"/>
</symbol>
</svg>